<svg version="1.2" xmlns="http://www.w3.org/2000/svg" viewBox="0 0 868 844" width="500" height="486">
	<title>wadl2025</title>
	<style>
		.s0 { fill: #1d1e1d } 
		.s1 { fill: #faf8f4 } 
	</style>
	<g id="Background">
		<path id="Path 1" fill-rule="evenodd" class="s0" d="m310.5 33c2 0 3 1 4.9 4.8 1.3 2.6 3.7 6 5.2 7.6 1.6 1.6 5.4 4.7 8.4 6.9 3 2.3 8 5.2 11 6.6 3 1.3 10 3.7 15.5 5.3 5.5 1.6 16.1 3.9 23.5 5.1 12.1 1.9 17.4 2.2 51.5 2.2 30.9 0 40.3-0.4 50.5-1.8 6.9-1 16.1-2.7 20.5-3.8 4.4-1.1 10.9-3.1 14.5-4.4 3.6-1.4 8.6-3.8 11.3-5.5 2.6-1.6 6.8-4.9 9.3-7.2 2.6-2.4 5.9-6.9 7.5-10 2.1-4.2 3.5-5.8 4.9-5.8 1.1 0 2.7 0.2 3.5 0.5 1.2 0.4 1.4 1.9 0.9 8.8-0.6 7.3-0.4 9.1 2 15.7 1.4 4.1 4.1 9.9 5.9 12.9 1.7 2.9 8.4 10.8 14.8 17.5 6.4 6.6 17 16.4 23.5 21.7 6.5 5.3 16.2 12.4 21.4 15.8 5.2 3.4 14.2 8.6 20 11.5 5.8 3 14.3 7 19 8.9 4.7 1.9 13 4.4 18.5 5.6 5.5 1.3 14 2.5 28 3.4l10.5-5.6c10.4-5.4 10.5-5.5 13-3.7 1.7 1.2 2.3 2.3 1.7 3.4-0.4 0.9-2.5 4-4.7 6.9-2.1 2.8-4.8 7.9-6 11.2-1.4 4.2-2 8.5-2 14.5 0 4.7 0.7 12.6 1.5 17.5 0.9 4.9 2.5 12.4 3.7 16.5 1.1 4.1 5.4 15.4 9.5 25 4.1 9.6 11.1 23.8 15.5 31.5 4.5 7.7 11.5 18.7 15.6 24.5 4.1 5.8 10.3 13.9 13.8 18 3.4 4.1 8.4 9.3 11.1 11.6 2.6 2.3 6.6 5 8.8 6.1 2.2 1.1 6.2 2.7 9 3.6 2.7 0.9 7.1 1.8 9.7 2.1 4.1 0.5 5 1 5.9 3.4 0.7 1.9 0.7 3.4 0 5-0.8 1.6-2.9 2.7-7.3 4-4.6 1.2-7.6 2.9-11.3 6.3-3.2 2.9-6.5 7.5-9.2 12.5-2.3 4.3-5.3 11.7-6.6 16.4-1.4 4.7-3.2 14-4.1 20.8-1 7.8-1.6 19.7-1.6 33 0 12.2 0.6 26 1.5 33.7 0.9 7.1 2.6 17.7 3.9 23.5 1.3 5.8 3.8 14.1 5.5 18.5 1.8 4.4 4.8 10.4 6.6 13.3 1.9 2.8 5.1 6.4 7.1 7.9 2 1.6 4.8 3.7 6.1 4.8 2.5 1.9 2.5 2.1 0.9 5.2-0.9 1.8-1.7 3.3-1.9 3.3-0.1 0-2.5-0.7-5.2-1.6-3.1-1-6.9-1.5-10-1.2-2.9 0.2-7.5 1.7-11 3.5-3.3 1.7-8.3 4.5-11 6.2-2.8 1.7-5.5 3.1-6 3.1-0.5 0-1.5-2.8-3-12.3l14-9-5-2.3c-2.8-1.3-7.1-3.3-9.8-4.4-3.6-1.5-4.7-2.5-4.7-4.3 0-1.2-1.1-4.6-2.5-7.5-1.4-2.8-2.5-5.4-2.5-5.7 0-0.3 1.5 0.3 3.2 1.2 1.8 0.9 7.8 3.6 13.3 5.9 6.5 2.8 10.1 3.8 10.3 3.1 0.2-0.7-1.3-7.1-3.2-14.2-2-7.1-4.4-18.2-5.5-24.5-1.1-6.3-2.5-16.7-3.1-23-0.5-6.3-1-16.7-1-23 0-6.3 0.5-16.4 1.1-22.5 0.5-6.1 2.2-16.6 3.5-23.5 1.4-6.9 4-16.3 5.8-21 1.9-4.7 4.3-10.9 5.5-13.8 1.9-4.8 2-5.2 0.3-5.2-0.9 0-6.7 0.7-12.7 1.5-6 0.9-18 2.7-26.5 4.1-8.5 1.4-16.9 3.1-18.5 3.7-1.6 0.6-4.8 2.7-6.9 4.7-2.2 1.9-5.5 6-11 14.5l-2.7-13c-1.5-7.1-4.3-18-6.1-24.2-1.8-6.2-3.2-11.3-3.1-11.3 0.2 0 2.7 1.9 5.5 4.2 2.9 2.2 7.5 5.1 10.3 6.4 2.7 1.3 8.1 2.8 12 3.3 4.4 0.6 11 0.7 17.5 0.1 5.8-0.5 15.2-1.6 21-2.5 5.8-0.8 12.9-2.2 15.7-3 4.5-1.3 5.2-1.8 4.4-3.3-0.5-0.9-3.1-3.5-5.7-5.8-2.7-2.2-8-7.8-11.7-12.5-3.8-4.6-12-16-18.2-25.4-6.2-9.4-14.2-22.6-17.8-29.5-3.6-6.9-9.3-19.5-12.5-28-3.3-8.5-7.1-20.2-8.6-26-1.4-5.8-3.2-15.2-4.1-21-0.8-5.8-1.5-10.8-1.5-11.3 0-0.4-0.8-0.3-1.8 0.2-0.9 0.5-5.7 4.6-10.7 9.1-5 4.5-9.7 8.6-10.5 9-1 0.6-2.7-0.3-9.5-6.3l4-3.6c2.2-2 5.4-4.7 7-6.1 1.7-1.4 5-4.9 7.5-7.8 2.5-2.8 4.3-5.4 4-5.6-0.3-0.3-4.1-1.2-8.5-2.1-4.4-0.9-11.4-2.8-15.5-4.1-4.1-1.2-13.4-4.7-20.5-7.7-7.1-2.9-18.4-8.5-25-12.4-6.6-3.9-16.3-10.1-21.5-13.8-5.2-3.8-12-8.9-15-11.4-3-2.5-10.7-9.6-17-15.8-6.3-6.1-14.6-15.5-18.5-20.7-3.9-5.2-7.2-9.6-7.5-9.6-0.3 0-2.9 7.3-5.7 16.2-2.9 9-6.2 20.1-9.5 33.3l2.3 7c1.3 3.8 4 9.5 6.1 12.5 2 3 6.4 8.7 15.8 19.5l-4.2 4.3c-3.4 3.3-4.5 3.9-5.5 3-0.7-0.7-5.4-6.9-10.5-13.7-5.1-6.9-9.8-12.6-10.3-12.8-0.5-0.2-3.4 7.7-6.4 17.4-2.9 9.8-7.3 23.9-14 44.8l-0.1-10c0-5.5-0.7-12.9-1.4-16.5-0.9-4.4-1.1-7.3-0.4-9 0.5-1.4 2.7-8.6 4.9-16 2.2-7.4 3.9-14.1 3.9-14.7 0-0.8-2.8 0.2-7.3 2.6-3.9 2.1-8.4 4.1-10 4.5-2.2 0.5-3.1 0.1-5.2-2.6-1.3-1.8-2.5-3.7-2.5-4.3 0-0.6 2.6-2.2 5.8-3.7 3.1-1.5 8.7-4.6 12.3-7 3.7-2.4 8.5-6 10.8-8 4-3.7 4.3-4.4 10.6-26.5 3.6-12.6 6.4-22.9 6.3-23-0.2-0.2-4.1 1.3-8.8 3.1-4.7 1.9-15 4.8-23 6.4-8 1.7-20.8 3.8-28.5 4.8-10.6 1.3-21.1 1.7-43 1.7-16.6 0-33.5-0.5-39.5-1.2-5.8-0.7-14.3-1.9-19-2.7-4.7-0.8-12.8-2.5-18-3.8-5.2-1.3-12.5-3.5-16.3-5-3.7-1.4-7-2.5-7.3-2.3-0.3 0.1 1.3 6.7 3.6 14.7 2.3 8 5.3 18.3 6.8 22.9 2.3 7 3.3 8.9 6.7 11.6 2.2 1.8 6.9 5.1 10.5 7.4 3.6 2.3 9.3 5.5 19 10.1l-2.8 4c-1.5 2.3-3.5 4.1-4.5 4-0.9 0-3.6-1-6-2.1-2.3-1.2-5.9-3.4-8-4.8-2-1.4-4.1-2.2-4.5-1.8-0.4 0.4 1.3 7.6 3.7 16 2.5 8.4 4.5 17 4.5 19.2 0 2.2-0.6 8.7-1.3 14.5-0.7 5.8-1.1 12-0.9 13.7 0.1 1.8 0.1 3.3-0.2 3.3-0.3 0-2.2-6.4-4.4-14.3-2.1-7.8-6.1-21.4-8.8-30.2-2.7-8.8-5.3-16.4-5.6-16.8-0.4-0.5-5.4 5.5-21.7 27.2l-8.7-8.4 7.4-9c4.1-4.9 8.3-10.3 9.5-12 1.1-1.6 3-6.1 4.3-10 1.6-5.1 2.1-8.1 1.6-11-0.4-2.2-3.6-12.9-7.2-23.7-3.5-10.9-6.4-20.5-6.4-21.3 0-0.8-0.3-1.5-0.8-1.5-0.4 0.1-1.1 0.7-1.7 1.4-0.6 0.8-4.4 5.8-8.5 11.2-4.1 5.3-12.7 14.7-19 20.7-6.3 6-16.9 15-23.5 19.9-6.6 5-18 12.6-25.3 16.9-7.2 4.4-18.5 10.1-25 12.8-6.4 2.7-15.5 6.2-20.2 7.9-4.7 1.6-12.3 3.7-17 4.6-4.7 1-8.6 1.9-8.8 2.1-0.1 0.3 1.5 2.6 3.5 5.1 2.1 2.6 7.1 7.6 18.4 17.9l-3.8 3.8c-2.1 2-4.1 3.7-4.6 3.7-0.4 0-4.4-3.5-9-7.7-4.5-4.2-9.4-8.8-10.9-10.2-1.5-1.5-3-2.4-3.2-2.1-0.3 0.3-1.4 6.8-2.5 14.5-1.1 7.7-3.2 18.1-4.6 23-1.5 5-4.9 14.9-7.7 22-2.7 7.2-7.8 18.6-11.3 25.5-3.4 6.9-10.6 19.3-16 27.5-5.4 8.3-12.5 18.6-15.8 23-3.3 4.4-10 11.9-14.9 16.8-4.8 4.8-8.7 8.9-8.6 9.2 0.2 0.2 4.8 1.3 10.3 2.4 5.5 1.1 15.6 2.7 22.5 3.6 6.9 0.8 16.3 1.5 21 1.5 4.7 0 10.9-0.7 13.7-1.5 3.2-0.9 8.2-3.7 12.5-7 4-3 7.4-5.3 7.5-5.2 0.2 0.1-1.8 7.4-4.3 16.2-2.5 8.8-5.1 19.5-5.7 23.8-0.7 4.2-1.4 7.7-1.7 7.7-0.3 0-1.7-1.9-3.2-4.3-1.4-2.3-4.4-5.9-6.5-8-2.1-2.2-5.5-4.8-7.6-5.8-2.5-1.3-12.8-3.2-31.5-5.9-15.2-2.2-28.3-4-29-4-0.7 0-0.2 1.9 1.6 5.3 1.6 2.8 4.1 8.8 5.6 13.2 1.5 4.4 3.5 11.4 4.6 15.5 1 4.1 2.7 12.7 3.7 19 1.3 8.7 1.7 17 1.7 34-0.1 17.5-0.6 25.7-2.3 37-1.2 8-3.3 19-4.7 24.5-1.4 5.5-3.5 12.6-4.7 15.7-1.2 3.2-1.9 6.1-1.5 6.5 0.5 0.5 3.6-0.3 7-1.6 3.5-1.4 9.7-4 13.8-5.8 4.1-1.8 7.6-3.3 7.7-3.3 0.2 0-0.3 1.2-1.1 2.8-0.7 1.5-2.1 5.2-3.1 8.2-1.6 5.4-1.8 5.5-7.8 7.9-3.4 1.3-7.8 3.1-13.2 5.2l7 4.6c3.8 2.5 7.1 4.6 7.2 4.7 0.1 0.1-0.2 2.9-0.7 6.4-0.6 3.4-1.5 6.2-2 6.2-0.5 0-2.9-1.3-5.3-2.9-2.3-1.5-7.1-4.3-10.7-6.1-4-2-8.6-3.4-12-3.7-4.1-0.4-6.5 0-9.3 1.3-2.9 1.5-4.2 1.6-5.5 0.8-0.9-0.6-2.4-2.3-3.2-3.8-1.4-2.6-1.4-2.8 1-4.7 1.4-1.1 4.9-4.4 7.8-7.2 3.7-3.6 6.6-7.7 9.3-13.4 2.1-4.6 5-12 6.3-16.5 1.3-4.6 3.4-14.2 4.7-21.3 2.1-11.6 2.3-16.1 2.4-42.5 0-26.6-0.2-30.6-2.2-40.5-1.3-6-3.3-14.1-4.6-18-1.3-3.9-3.7-9.5-5.2-12.5-1.6-3-4.9-7.7-7.4-10.4-2.5-2.7-6.2-5.9-8.1-7.1-1.9-1.2-5.4-2.8-7.8-3.4-2.8-0.7-4.4-1.8-4.7-3.1-0.3-1.1-0.3-2.9 0-4 0.4-1.5 1.3-2 3.7-2 1.8 0 5.5-0.6 8.3-1.3 2.7-0.8 7.5-2.5 10.5-3.9 3-1.4 7.5-4.2 10-6.2 2.5-2.1 7.6-7.2 11.3-11.4 3.8-4.3 11-13.6 16.1-20.7 5.1-7.1 11.9-17.5 15.1-23 3.2-5.5 7.8-14.3 10.3-19.5 2.4-5.2 6.6-15.6 9.4-23 2.7-7.4 5.9-17.5 6.9-22.5 1.1-4.9 2.2-13.9 2.6-20 0.3-6.6 0.1-13.2-0.6-16.5-0.7-3.5-2.7-7.9-5.3-11.9-2.4-3.5-5-7.4-5.8-8.7-1.3-1.9-1.3-2.4 0-3.8 0.8-0.9 2.4-1.7 3.5-1.6 1.1 0 5.4 2.2 17 9.5h10.5c6.3 0 14.1-0.8 19.5-1.9 4.9-1 12.1-3 16-4.4 3.8-1.3 12.3-5.1 18.7-8.3 6.5-3.3 16.9-9 23-12.8 6.2-3.9 15.4-10.2 20.3-14.2 4.9-4 12.9-10.9 17.7-15.3 4.8-4.5 11.9-11.9 15.9-16.6 4.2-5 8.6-11.4 10.5-15.5 1.7-3.8 3.7-9.7 4.4-13 0.7-3.3 1.1-8.5 0.9-11.5-0.2-3 0-6.1 0.4-6.7 0.4-0.7 1.9-1.3 3.2-1.3zm123 83.7c3.9 0.3 10.6 1.7 15 3 4.4 1.4 10.2 3.8 13 5.3 2.7 1.5 8.5 6.1 12.9 10.2 7 6.5 8.5 8.5 13.2 18.3 3 6.1 6.3 15 7.6 20 1.8 7.3 2.2 11.7 2.1 23-0.1 10.8-0.6 15.8-2.2 22-1.2 4.4-3.9 11.6-6.1 16-2.1 4.4-5.1 10.2-9.5 17.7l3 2.4c1.6 1.3 3.6 2.4 4.2 2.4 0.7 0 3.4-3 6-6.7 2.7-3.6 9.2-12.7 14.6-20.2 5.4-7.5 12.4-16.9 15.5-21 3.1-4 10.6-13.2 16.5-20.5 6-7.2 15.3-18 20.7-24.1 5.5-6 12.1-12.6 14.7-14.6 2.6-2 6.9-4.4 9.5-5.3 2.7-0.9 5.8-1.6 7-1.6 1.3 0 5 1.3 8.3 3 3.3 1.6 13 8.2 21.5 14.6 8.5 6.4 19.5 14.9 24.5 18.7 5 3.9 14.4 11.6 21 17.1 6.6 5.6 17.4 15.3 24 21.6 6.6 6.3 13.3 13.1 14.9 15 1.6 1.9 7.3 12.5 12.7 23.5 5.4 11 11.6 24.7 13.9 30.5 2.3 5.8 6.1 18.1 8.5 27.5 2.3 9.4 4.5 18.9 4.9 21.3 0.4 2.5 0.2 4.2-0.4 4.2-0.5 0-6.7-11.4-13.6-25.2-6.9-13.9-15-29.3-17.9-34.3-2.9-4.9-7.9-12.6-11-17-3.2-4.4-7.2-10.2-9-13-1.9-3-7.4-8.4-13.6-13.6-5.7-4.7-18-14.4-27.4-21.4-9.4-7.1-20.8-15.6-25.5-18.9-4.7-3.3-14.8-10.2-36.5-24.6l-5 4.6c-2.8 2.6-6.7 6.5-8.8 8.8-2.1 2.2-9.1 10.6-15.6 18.6-6.4 8-18 22.8-25.7 33-7.7 10.2-16.4 21.6-19.4 25.3-3 3.7-5.3 7-5 7.2 0.3 0.2 10.6-5.5 23-12.7 12.4-7.1 29.2-16.3 37.5-20.4 14.6-7.3 15.2-7.5 21.5-7.2 5.3 0.2 7.5 0.9 11.5 3.5 2.8 1.7 8 6.2 11.6 10 3.7 3.7 12.3 13.1 19 20.9 6.8 7.8 15.8 18.1 20 23 4.1 4.9 10.5 12.5 14.1 16.9 3.6 4.4 9.6 12.1 13.3 17 3.7 4.9 7.2 9.9 7.6 11 0.5 1.1 4.3 14.1 8.4 29 4.9 17.6 8.2 31.7 9.5 40.5 1 7.4 2.4 19.4 3 26.5 0.6 7.1 1.2 14.5 1.3 16.2 0.1 1.8 0 3.3-0.3 3.3-0.3-0.1-2.2-2.5-4.3-5.5-2-3-4.2-7.4-4.8-9.7-0.5-2.4-4-13.7-7.6-25.3-3.6-11.6-10.4-30.7-23.5-64l-8.7-9c-4.8-4.9-15.9-17.3-24.7-27.5-8.7-10.2-22.4-25.1-30.4-33.3-12.1-12.4-14.9-14.7-16.8-14.3-1.2 0.3-14.7 6.8-30 14.4-15.2 7.6-31.5 16-44.4 23.7l6.8 0.7c3.8 0.4 13.4 1.5 21.4 2.4 8 0.8 18.5 2.2 23.5 3 5 0.8 13 2.5 17.9 3.7 6.2 1.5 9.9 3.1 12.4 5.2 2 1.6 6.1 6.4 9.2 10.5 3 4.1 9.6 14.3 14.6 22.5 5 8.3 12 20.2 15.6 26.5 3.6 6.3 7.2 13.8 8.1 16.5 0.9 2.8 3.4 12.2 5.6 21 2.1 8.8 4.9 21.9 6.1 29 1.2 7.1 2.6 13.9 3.1 15 0.6 1.3 0.7-5.1 0.4-17-0.3-10.4-0.9-21.2-1.4-24-0.5-2.7-0.7-5.1-0.5-5.2 0.2-0.2 4.3 3 9.1 7.1 4.9 4 13.8 12.5 19.8 18.8 6 6.3 15.5 17 21.1 23.9 5.5 6.8 13.5 17.3 17.6 23.4 4.2 6.1 10.5 16.4 14.1 23 3.5 6.6 8 16 10 21 2 5 5.2 14.4 7.1 21 1.9 6.6 4.2 17.4 5.1 24 1.3 8.6 1.6 15.5 1.2 24.5-0.3 6.9-1.3 15.6-2.1 19.5-0.8 3.9-2.4 9.5-3.4 12.5-1 3-3.7 9.1-6 13.5-2.6 5-6.9 11-11.4 15.9-4 4.3-9.8 9.6-12.8 11.6-3 2.1-7.8 4.9-10.5 6.3-2.8 1.4-9.3 3.9-14.5 5.5-5.2 1.7-13.3 3.9-18 4.9-6.7 1.4-13.1 1.8-30 1.8-18.9 0-22.7-0.3-32-2.4-5.8-1.3-14.5-3.6-19.5-5.3-5-1.6-14.2-5.6-20.5-9-6.3-3.3-20.6-12-31.8-19.4-11.1-7.4-25.7-16.5-32.5-20.3-6.7-3.9-16.9-8.8-22.7-11.1-5.8-2.3-15.7-5.7-22-7.5-6.3-1.8-16.2-4-22-4.9-5.8-0.9-16.8-1.6-24.5-1.6-7.7 0-18.3 0.7-23.5 1.4-5.2 0.8-13.3 2.4-18 3.6-4.7 1.2-14.1 4.4-21 7.1-6.9 2.7-17.9 7.9-24.5 11.5-6.6 3.7-21 12.6-32 19.9-11 7.4-25.4 16.3-32 19.9-7.2 3.9-16.8 8.1-24 10.5-6.6 2.1-15.8 4.7-20.5 5.7-6.8 1.5-12.7 1.9-29.5 1.9-16.6 0-22.6-0.4-28.5-1.8-4.1-1-11.3-2.9-16-4.3-4.7-1.4-12.3-4.6-17-7-4.7-2.4-11.2-6.5-14.4-9.1-3.3-2.6-8.6-7.9-11.9-11.8-3.2-3.9-7.6-10.6-9.7-15-2-4.4-4.7-10.9-5.8-14.5-1.1-3.6-2.7-9.2-3.4-12.5-0.8-3.7-1.3-12.6-1.2-23 0-13.7 0.5-19 2.3-27.5 1.2-5.8 4.2-16.6 6.6-24 2.6-7.7 7.5-19.5 11.6-27.5 3.9-7.7 10.5-19.2 14.7-25.5 4.3-6.3 11.2-16 15.5-21.5 4.3-5.5 12.4-15.1 18-21.3 5.6-6.2 13.8-14.5 18.2-18.5 4.4-4 10.2-9.2 13-11.5 2.7-2.3 5.4-4.2 6-4.2 0.6 0 0.7 2.6 0.3 7.3-0.4 3.9-1 11.7-1.4 17.2-0.4 7-0.3 9.7 0.4 9 0.6-0.5 3.9-12.7 13.8-53l8.4-15c4.6-8.2 11.7-20.4 15.8-27 4.1-6.6 10.4-16 14-20.9 3.7-4.9 8.1-9.9 9.7-11.2 1.6-1.2 4.4-2.8 6-3.4 1.6-0.6 7.5-2 13-3 5.5-1.1 17.9-2.9 27.5-3.9 9.6-1.1 21.3-2.2 34.5-3.3l-4.8-2.9c-2.6-1.6-10.4-6.1-17.5-10.1-7-3.9-21.9-11.5-53.7-26.6l-3 2.6c-1.6 1.4-8.6 8.4-15.4 15.6-6.8 7.2-19.4 21.2-28 31.1-8.6 9.9-19.4 22-24.1 27-4.7 4.9-9.3 10.8-10.2 13-1 2.2-5.3 13.5-9.6 25-4.4 11.6-8.8 23.9-10 27.5-1.1 3.6-4.2 13.3-6.8 21.5-2.9 9.1-6.1 17.3-8.3 20.7-2 3.2-3.8 5.8-4.1 5.8-0.3 0 0.1-7.1 0.7-15.8 0.7-8.6 2.2-22.2 3.4-30.2 1.3-9.6 3.7-20 7-31 2.8-9.1 6.4-21.4 8-27.5 2.3-8.1 4.2-12.7 7.5-17.7 2.4-3.8 9.2-12.8 15.1-20 5.9-7.3 13.3-16.2 16.4-19.8 3.2-3.6 12.5-14.1 20.7-23.5 8.2-9.3 17.6-19.5 20.8-22.5 3.3-3 8.2-6.6 11-7.9 3.9-1.9 6-2.3 10.4-1.9 4.4 0.3 8.8 2.1 22 8.7 9.1 4.6 22.6 11.9 30 16.1 7.4 4.3 16.9 9.8 21 12.3 4.1 2.5 7.7 4.4 8 4.1 0.3-0.2-1.5-3-4.1-6.1-2.5-3.2-11.2-14.6-19.4-25.3-8.2-10.7-19.4-25.1-24.9-32-5.5-6.9-15-17.7-32.3-35.5l-19.9 13.6c-10.9 7.4-25.1 17.4-31.4 22.1-6.3 4.6-15.8 11.8-21 15.9-5.2 4.1-13.3 10.6-17.9 14.4-6.9 5.7-10 9.4-17.5 20.5-5.1 7.4-11.7 17.8-14.8 23-3 5.2-11.3 20.8-18.4 34.7-7.1 13.9-13.2 25-13.7 24.8-0.4-0.3 0.4-5.6 1.8-11.7 1.4-6.2 4-16.7 5.9-23.3 1.9-6.6 6.2-18.5 9.6-26.5 3.4-8 9.6-21.5 13.7-30 6.5-13.3 8.5-16.5 14.2-22.4 3.6-3.8 11.8-11.4 18.1-17 6.3-5.6 17.3-14.9 24.5-20.6 7.1-5.8 19.1-15.1 26.5-20.8 7.4-5.6 17.5-13.1 22.5-16.6 4.9-3.5 10.6-6.8 12.5-7.5 1.9-0.6 4.6-1.1 6-1.1 1.4 0.1 4.1 0.6 6 1.3 2 0.7 6.2 3.2 9.4 5.7 3.3 2.5 9.7 8.8 14.4 14 4.7 5.2 13.3 15.4 19.1 22.5 5.9 7.2 15 18.6 20.2 25.5 5.3 6.9 14.7 19.7 21 28.4 6.3 8.7 11.7 16 12.1 16.2 0.5 0.2 2.6-0.6 8.6-4.1l-3.5-5.5c-1.9-3-5-8.6-6.9-12.5-1.8-3.8-4.3-10.6-5.5-15-1.6-6.2-2.1-11.1-2.1-21.5-0.1-9.1 0.4-15.9 1.6-20.7 0.9-4 2.5-10.1 3.7-13.5 1.2-3.5 3.5-9.2 5.2-12.8 2.2-4.6 5.4-8.7 10.8-14 4.1-4.1 10.2-9.1 13.5-11 3.2-1.9 8.7-4.5 12.1-5.7 3.5-1.3 8.7-2.7 11.5-3.2 2.9-0.5 8.4-0.7 12.3-0.4zm152.7 70.4l6.1 4.4c3.4 2.3 10.7 6.5 16.2 9.3 5.5 2.7 14 6.4 19 8.2 6.9 2.4 11.2 4.7 27.5 17v12c0 7.1 0.7 15.1 1.6 19.8 0.9 4.2 3.3 12.4 5.3 18.2 2.1 5.8 4.1 11.4 4.5 12.5 0.5 1.3-0.1 0.9-1.6-1-1.3-1.6-6-7.5-10.5-13-7-8.5-8.4-10.8-9.3-15.5-0.7-3-1.5-10.3-1.8-16.3-0.4-6.5-1.1-10.6-1.7-10.4-0.5 0.2-4.1 2.5-15 9.8l-7.5-7.6 10.9-11-17.7-7.5c-11.4-4.8-20-9.2-24.2-12.2-3.6-2.6-7.4-5.4-8.5-6.3-2-1.5-1.9-1.6 2.3-5.9zm-312.1 0.8c0.2 0 2.3 1.8 4.5 4 3 3 3.7 4.2 2.8 5.2-0.6 0.8-4.6 3.8-9 6.8-5.4 3.7-13.3 7.7-42.3 19.5l11 11-8 8-2.3-2.1c-1.2-1.2-4.5-3.6-7.2-5.3-2.8-1.7-5.4-3.1-5.8-3.1-0.4 0-0.7 4.2-0.8 9.3 0 5.3-0.7 12.5-1.7 16.7q-1.8 7.5-4.8 11.2c-1.6 2-6.1 7.5-9.9 12.2-3.9 4.7-7.2 8.3-7.3 8.1-0.1-0.3 0.5-1.9 1.4-3.7 0.9-1.8 3-7.1 4.6-11.8 1.5-4.6 3.5-11.5 4.3-15.2 0.9-4 1.5-12.1 1.5-32.8l9.2-6.9c7.1-5.4 11.2-7.7 17.8-9.9 4.6-1.6 14.1-5.6 21-8.9 6.8-3.3 14.3-7.4 16.5-9.1 2.2-1.7 4.2-3.1 4.5-3.2zm-4.2 77c0.4 0 2.9 1.5 5.6 3.3 2.8 1.8 8.6 6.5 13 10.6 4.4 4 9.3 8.7 10.8 10.2 1.5 1.6 2.8 3.3 2.8 3.7 0 0.4-2.5 1.3-5.5 2-3.1 0.7-6.2 1-7 0.7-0.9-0.2-1.5-0.9-1.5-1.5 0-0.5-4.7-4.9-10.3-9.7-5.6-4.8-11.3-9.4-14.8-11.8l3.1-3.7c1.7-2.1 3.4-3.8 3.8-3.8zm320.4 0.1c0.4 0 2.1 1.6 3.7 3.7 1.7 2 2.7 4 2.3 4.3-0.4 0.3-6.3 5.6-25.2 22.9l-5.3-1.1c-2.9-0.6-5.8-1.4-6.5-1.7-0.9-0.4 2.3-4.1 9.4-10.7 5.8-5.5 13-11.6 15.8-13.7 2.8-2 5.4-3.7 5.8-3.7zm-399.7 93.3l14 2c7.7 1.1 14.2 2.1 14.5 2.3 0.2 0.2-0.4 1.8-1.4 3.6-1 1.8-2.3 4-3 5-1.1 1.8-1.7 1.8-15.4-0.5-7.9-1.2-14.3-2.4-14.3-2.5 0-0.2 0.7-1.4 1.6-2.8 0.8-1.3 2-3.5 2.7-4.8zm477.1-0.4c0.8 0 2.3 1.9 3.4 4.3 1 2.3 1.9 4.8 2 5.5 0 0.8-4.2 1.9-12.3 3.3-6.7 1.1-12.3 1.9-12.3 1.8 0-0.2-1.3-2.6-2.8-5.4-1.4-2.7-2.5-5.1-2.4-5.2 0.2-0.2 5.2-1 11.3-1.8 6-0.9 11.2-1.8 11.4-2 0.2-0.3 1-0.5 1.7-0.5zm-130.6 351.3c6.6 0.3 9.7 0.9 14 3 3 1.4 6.4 3.4 7.5 4.4 1.1 1 3.2 3.4 4.6 5.3 1.5 2 3.1 5.1 3.8 7 0.6 2 1.2 6.5 1.2 10 0 4.3-0.7 8.5-2.1 12-1.1 3.1-4.2 8.5-6.9 12-2.7 3.6-10.3 11.8-29.1 30h40l-0.5 18.5h-68l-0.5-17 9.6-8c5.3-4.4 13.7-12.5 18.6-18 5.6-6.3 10.2-12.6 12.4-17 2.3-4.7 3.4-8.3 3.4-11.2 0-2.4-0.7-5.6-1.5-7.3-1-2-2.7-3.3-5.3-4.1-2.1-0.6-5-0.8-6.7-0.4-1.7 0.4-4.3 2.1-5.8 3.6-1.5 1.6-3.1 4.7-4.2 11l-21-0.1 0.7-5.5c0.4-3 1.4-6.9 2.1-8.7 0.7-1.8 2.5-4.8 3.9-6.8 1.4-1.9 4.5-4.8 6.9-6.5 2.3-1.6 6.5-3.8 9.3-4.7 3.7-1.3 7.3-1.7 13.6-1.5zm82 0.1c5.1 0.2 9.2 1.1 13 2.8 3 1.3 7.5 4.3 10 6.5 2.5 2.3 5.7 6.3 7.2 9 1.5 2.6 3.6 8.4 4.7 12.8 1.6 6.1 2.1 11.1 2.1 20.5 0 6.9-0.7 15.5-1.4 19-0.8 3.6-2.8 9.3-4.5 12.8-1.7 3.4-4.6 7.9-6.4 9.8-1.8 2-6.1 5-9.7 6.8-6 2.9-7.2 3.1-17 3.1-9.4 0-11.1-0.3-16-2.6-3-1.5-7.4-4.8-9.8-7.3-2.3-2.5-5.3-6.7-6.6-9.3-1.3-2.6-3.2-7.5-4.3-10.8-1.4-4.7-1.8-9.1-1.8-21.5 0.1-14.2 0.3-16.1 2.8-23.2 1.5-4.3 3.7-9.5 5-11.5 1.3-2.1 4.8-5.9 7.8-8.6 3.6-3.3 7.3-5.4 11.4-6.7 4.4-1.5 8-1.9 13.5-1.6zm81.5-0.1c7.2 0.2 10 0.8 14.5 2.9 3.2 1.6 7.2 4.6 9.8 7.5 2.3 2.7 4.9 6.9 5.7 9.3 0.8 2.5 1.5 7 1.5 10 0 3.1-0.6 7.6-1.3 10-0.7 2.5-3.1 7.2-5.2 10.5-2.1 3.3-10.1 12.2-31.5 33.5h40l-0.5 17.9-3 0.4c-1.7 0.3-17 0.4-65 0.2l-0.6-17 5.3-4.4c2.9-2.5 9-8.1 13.7-12.5 4.6-4.4 11.1-11.4 14.4-15.6 3.3-4.1 7.1-9.9 8.4-13 2-4.3 2.4-6.5 2-10.5-0.4-3.6-1.3-5.6-3.2-7.5-2-1.9-3.6-2.5-7.5-2.5-4.2 0-5.5 0.5-8 3-2 2-3.3 4.5-4.5 11.6h-10.8c-10.4-0.1-10.7-0.1-10.7-2.3-0.1-1.3 0.8-5.2 1.9-8.8 1.3-4.1 3.4-8.1 5.8-10.9 2.1-2.4 5.4-5.4 7.3-6.6 1.9-1.2 5.5-2.9 8-3.8 3.2-1.2 7-1.6 13.5-1.4zm-618.3 1.5c6.8 0.1 12.4 0.3 12.5 0.5 0.1 0.1 2.9 10.8 6.1 23.7 3.3 13 7.2 28.8 8.8 35.3 1.6 6.4 3.1 11.2 3.5 10.5 0.3-0.7 2.2-7.8 4.2-15.8 2-7.9 5.4-21.9 7.6-31 2.2-9 4.5-18 6-23.5l22.6 0.5 3.2 11.7c1.7 6.5 5.8 22.5 9 35.6 3.2 13 6 23.7 6.3 23.8 0.3 0 1-2 1.6-4.3 0.6-2.3 4.1-15.7 7.7-29.8 3.6-14 7.4-28.1 10.2-37.1l11.7-0.2c6.5-0.1 11.8 0.2 11.8 0.6 0 0.4-0.7 3.3-1.6 6.5-0.9 3.1-4.7 15.9-8.4 28.2-3.7 12.4-9.6 32-13.1 43.5-3.4 11.6-6.4 21.3-6.7 21.5-0.2 0.3-5.9 0.7-24.7 1.2l-4.2-15.3c-2.2-8.5-6.3-23.6-9-33.6-2.6-10-5.1-17.9-5.4-17.5-0.4 0.4-1.9 5.9-3.3 12.2-1.5 6.4-5.4 21-14.3 53.5l-12.1 0.3c-10.8 0.2-12.3 0-13.1-1.5-0.5-1-2.3-6.9-4.1-13.3-1.8-6.3-6.1-21.1-9.6-33-3.5-11.8-8.2-28.2-10.5-36.5-2.3-8.2-4.3-15.4-4.6-16-0.2-0.6 4-0.9 11.9-0.7zm232.8-0.3l23.7 0.6c21.3 0.5 24.4 0.8 29.8 2.8 3.3 1.2 8.4 3.6 11.3 5.4 3 1.8 7 5 8.9 7.2 1.9 2.2 4.8 6.6 6.4 9.8 1.6 3.1 3.5 8.5 4.4 12 0.8 3.4 1.5 9 1.5 12.5 0 3.4-0.5 8.6-1.1 11.5-0.6 2.9-2.8 8.6-4.8 12.6-2.6 5.4-5.3 9-9.6 12.9-3.3 3-8.2 6.6-10.8 7.9-2.6 1.3-7.3 3-10.5 3.9-3.9 1-12.6 1.6-49.2 2.4zm120 0.5v81h38l-0.5 7.3c-0.3 4-0.5 8.5-0.5 12.7l-58.5-0.5-0.3-49.5c-0.1-27.2-0.1-49.9 0.1-50.5 0.3-0.6 4.6-0.9 21.7-0.5zm370-0.5v18.5h-37.5l-1.7 9.8c-1 5.3-1.5 9.8-1.3 10 0.3 0.1 1.8-0.4 3.5-1.3 1.8-0.9 5.8-1.5 10.5-1.5 5 0 9.2 0.7 12.7 2 2.9 1.1 7.2 3.8 9.5 6 2.4 2.2 5.1 5.7 6.2 7.8 1 2 2.4 6.4 3.1 9.7 0.9 4.6 0.9 7.6 0.1 12.5-0.6 3.6-2 8.3-3.1 10.5-1 2.2-3.8 6-6.2 8.4-2.4 2.4-6 5.2-8.1 6.3-2 1-6.8 2.3-10.5 2.9-3.9 0.6-9.8 0.8-14.2 0.4-5.1-0.5-9.3-1.7-13-3.5-3-1.5-6.9-4.5-8.7-6.6-1.7-2.1-4.1-6-5.2-8.6-1.2-2.6-2-4.9-1.9-5.1 0.2-0.2 4.7-1.4 19.8-5.2l1.8 3.5c1.1 2 3 4.3 4.3 5.3 1.3 1 4.6 2 7.4 2.3 3.7 0.4 5.9 0.1 8.5-1.3 1.9-1 4.5-3.3 5.7-5.3 1.7-2.6 2.3-4.9 2.3-9 0-3.3-0.7-6.8-1.9-9-1-1.9-3.3-4.3-5.2-5.3-2.4-1.2-5.1-1.7-9-1.5-4.2 0.3-6.8 1.1-15.9 6.8l-7-2c-6.3-1.8-7-2.2-7-4.5 0-1.3 1.6-13.4 3.5-26.7 2-13.4 3.8-24.7 3.9-25.3 0.2-0.6 10.2-1 54.6-1zm-535 0.5l1.6 5.3c0.9 2.9 4.5 13.1 8 22.7 3.5 9.7 8.9 24.5 11.9 33 3.1 8.6 7.4 20.5 9.5 26.5 2.2 6.1 3.9 11.6 4 12.3 0 0.9-3 1.2-24.5 0.7l-5.5-18.5h-36.5l-6.2 18.5-11.4 0.1c-6.3 0-11.8-0.1-12.2-0.3-0.4-0.1 1.3-6 3.7-13 2.4-7 5.8-16.6 7.6-21.3 1.8-4.6 5.4-14.5 8-22 2.7-7.4 7.1-19.8 9.9-27.5 2.9-7.7 5.3-14.5 5.6-15.2 0.3-0.9 3.9-1.3 26.5-1.3z"/>
		<path id="Path 2" fill-rule="evenodd" class="s1" d="m356.8 319.1c0.1 0 0.9 3.2 1.7 7.1 0.9 4 2.6 9.5 3.8 12.3 1.3 2.7 5.1 8.3 8.5 12.2 5.2 6.1 6.2 7.9 6.2 11 0 2.1 0.7 6.7 1.6 10.3 0.8 3.6 3.1 9.4 4.9 13 1.9 3.6 5.6 8.7 8.2 11.4 2.6 2.7 6 5.5 7.5 6.2 1.6 0.8 3 1.3 3.2 1.1 0.3-0.1-0.6-4.5-1.9-9.7-1.2-5.2-2.6-12.4-3.8-22.5l3.4 2.6c1.9 1.4 6.1 4 9.4 5.6 3.3 1.7 8.5 3.6 11.5 4.3 3 0.7 8.4 1.1 12 0.8 4.1-0.3 8.9-1.5 13-3.3 3.6-1.6 8.9-4.4 11.7-6.2 2.9-1.8 5.5-3.2 5.7-3.1 0.3 0.2-0.2 4.1-1 8.8-0.8 4.7-2.3 11.6-3.4 15.5-1 3.8-1.7 7.1-1.4 7.2 0.2 0.2 1.4-0.2 2.6-0.9 1.3-0.6 3.8-2.3 5.7-3.7 1.8-1.4 5.2-5.5 7.6-9.1 2.3-3.6 5.2-9.2 6.4-12.5 1.3-3.3 2.5-9.2 2.8-13 0.6-6.8 0.8-7.2 6.6-14 3.3-3.9 7.3-9.7 8.9-13 1.5-3.3 3.4-8.8 5.3-18.6l4 0.6c2.2 0.3 10.1 1.4 17.5 2.4 7.4 1.1 23 4 34.5 6.5 11.5 2.6 22.5 5.1 24.2 5.6 2.9 0.9 5.4 4.2 18.9 24.7 8.6 13.1 18.7 28.3 22.4 33.8 3.7 5.5 7.7 11.8 8.8 14 1.1 2.2 3.9 8.9 6.2 15 2.3 6 5.7 16.6 7.6 23.5 1.9 6.9 4.1 16.5 4.9 21.5 0.8 4.9 1.2 9.1 1 9.2-0.3 0.2-1.2-1.8-2.1-4.5-1-2.6-4.4-11.7-7.7-20.2-3.3-8.5-7.9-21-10.3-27.8-4-11-5.8-14.3-18.9-34-14.1-21.2-14.6-21.8-21.2-25.8-3.7-2.3-11.3-6.4-16.8-9.2-5.5-2.7-17.9-7.5-27.5-10.5-9.6-3.1-22.1-6.8-27.8-8.2-5.6-1.4-10.5-2.5-11-2.5-0.4 0-1.9 2.5-3.3 5.7-1.4 3.2-5.6 9.7-9.2 14.5-4.5 6-6.7 9.7-6.7 11.5 0 1.6-0.7 5.5-1.5 8.8-0.9 3.3-2.8 8.7-4.4 12-1.6 3.3-5.3 8.6-8.3 11.8-3 3.3-7.5 6.9-10.3 8.3-2.9 1.4-6.8 2.4-9.3 2.4-3.8 0-4.2-0.2-4.6-2.8-0.2-1.5 0.2-5.1 1-8 0.8-2.8 1.4-6.6 1.4-8.2 0-2.4-0.3-2.9-1.8-2.4-0.9 0.3-4.4 1.3-7.7 2.2-3.9 1-9.8 1.6-17 1.6-8.6-0.1-12.4-0.6-17.5-2.3-3.6-1.2-6.6-2-6.8-1.9-0.2 0.2 0.4 2.9 1.2 6 0.9 3.2 1.6 8 1.6 15.8h-4.3c-2.3 0-6-0.9-8.2-1.9-2.2-1-5.8-3.4-8-5.3-2.2-1.9-5.7-5.9-7.7-8.9-2-3-4.8-8.4-6.2-12.2-1.4-3.7-2.9-9.3-3.3-12.5-0.6-4.9-1.5-6.8-6.8-13.7-3.3-4.4-6.8-9.6-7.7-11.5-0.9-1.9-2.1-4.7-2.7-6.3-0.6-1.5-1.4-2.7-1.9-2.7-0.4 0-6.1 1.3-12.7 3-6.6 1.6-18.5 5.1-26.5 7.6-8 2.6-18.8 6.6-24 9.1-5.2 2.4-13.5 6.8-27.4 14.8l-14.9 22.5c-13.4 20.1-15.5 23.8-19.6 35-3.9 10.6-5 12.5-6.9 12.7-2 0.3-2.1 0-1.6-3 0.4-1.7 2.7-9.1 5.1-16.2 4.4-12.9 4.5-13.2 51.3-83.5l5.2-1.5c2.9-0.8 12-3.1 20.3-5 8.2-1.9 20.9-4.4 28-5.6 7.1-1.1 16.8-2.4 21.5-2.8 4.7-0.5 8.6-0.9 8.8-1zm106.2 2.9c1.1 0 3 0.5 4.2 1.2 1.3 0.6 2.8 1.8 3.5 2.7 0.7 0.9 1.3 3.6 1.3 6.1 0 2.5-0.8 6-1.8 8-1.1 1.9-3.4 4.5-5.3 5.8-1.9 1.2-4.3 2.3-5.4 2.3-1.1 0-3.1-0.8-4.4-1.8-1.7-1.3-2.5-3.1-2.9-6.8-0.3-3.2 0-6.2 0.9-8.4 0.8-1.9 2.9-4.7 4.7-6.3 1.8-1.5 4.2-2.8 5.2-2.8zm-67 1c2 0 4.2 1.1 6.7 3.4 2.1 1.8 4.3 4.9 4.9 6.7 0.7 2.1 0.9 4.8 0.4 6.9-0.4 1.9-1 4.2-1.3 5-0.4 0.8-1.9 2.1-3.4 2.8-1.9 0.9-3.6 1-5.3 0.4-1.4-0.6-3.5-2-4.7-3.3-1.2-1.3-2.9-4.1-3.7-6.2-0.9-2-1.6-5.3-1.6-7.2q0.1-3.6 2.5-6c1.5-1.6 3.5-2.5 5.5-2.5zm170 74.7c2.5 0.3 7.9 1.8 12 3.4 4.1 1.6 11 5 15.2 7.6 4.2 2.7 10.7 7.3 14.3 10.3 3.7 3 8.7 8.3 11.1 11.7 2.4 3.5 4.7 7.8 5.1 9.7 0.7 3.2 0.6 3.5-1.7 4.1-1.4 0.4-5.2-0.1-8.5-1-3.3-0.9-8.3-2.9-11-4.3-2.8-1.4-12.2-7.3-20.9-13.1-8.8-5.8-18.6-13.1-21.8-16.1-3.2-3-5.8-6.4-5.8-7.5-0.1-1.1 0.5-2.5 1.2-3.2 0.7-0.6 2.4-1.3 3.8-1.6 1.4-0.3 4.5-0.3 7 0zm-284.3 54.3c80.1 0 92.7 0.2 95.3 1.5 1.6 0.8 3.9 3 5 4.7 1.9 3.2 2 5.1 2 62.5 0 55.6-0.1 59.3-1.7 59.7-1 0.3-4.4 0.7-13.3 1.6v-81h-174l0.1 64.7c0.1 35.7 0.4 65.9 1.5 69.8l70.9 1-3 2.1c-1.6 1.1-5.5 3.5-8.5 5.1-3 1.7-8.2 3.9-11.5 4.9-5 1.5-10.1 1.8-30.2 1.8-23 0.1-24.3 0-27-2-1.5-1.2-3.6-3.4-4.5-5-1.5-2.7-1.7-10.4-1.9-92.4-0.2-81.7-0.1-89.8 1.4-92.8 1-1.7 2.9-3.9 4.4-4.7 2.4-1.2 16.2-1.4 95-1.5zm330.8 35.5l0.2 83.7c0.2 55.4 0 83.8-0.7 83.8-0.5 0-6.1-2.7-12.3-6-6.1-3.3-15.6-8.8-30.8-18.5l-0.1-70.9c0-38.9 0.3-71.2 0.7-71.7 0.3-0.5 10-0.8 43-0.4zm58 27l0.6 27-43.1 0.5-0.2-13.3c-0.1-7.4 0.3-13.7 0.7-14.1 0.5-0.3 10.1-0.5 42-0.1zm-419.5 15.5c1.4 0 3.3 0.8 4.3 1.8 1 0.9 1.8 2.7 1.7 3.9 0 1.5-3.3 5.9-18.3 21.8l19.1 0.5c17.2 0.5 19.2 0.7 21.1 2.5 1.2 1.1 2.2 2.9 2.1 4 0 1.1-0.7 3-1.5 4.2-1.5 2.2-1.9 2.3-19.8 2.3-10 0-18.9 0.5-19.7 1-1.2 0.7 0.3 2.7 7.7 10.2 5.2 5.3 9.2 10.2 9.3 11.3 0 1.1-0.9 3-2 4.2-1.1 1.3-2.9 2.3-4 2.3-1.3 0-8.2-6.2-18.5-16.5-12.4-12.4-16.4-17-16.3-18.7 0.1-1.4 6.5-8.6 16.3-18.5 12.2-12.4 16.7-16.3 18.5-16.3zm70.2 0c23.5 0 24.9 0.1 26.8 2 1.1 1.1 2 2.9 2 4 0 1.1-0.9 2.9-2 4-1.9 1.9-3.2 2-27.5 1.7-21.5-0.2-25.7-0.4-26.5-1.7-0.5-0.8-1.1-2.8-1.2-4.4-0.2-1.9 0.4-3.3 1.7-4.2 1.5-1 7.9-1.3 26.7-1.4zm306.8 23h43v110h-10.3c-5.6 0-14-0.5-18.7-1-4.7-0.6-9.7-1.3-14-2zm-305.9 5.7c22 0.2 24.6 0.4 26.2 2 1 1 1.8 3 1.7 4.5 0 1.8-0.8 3.4-2.3 4.3-1.8 1.2-6.5 1.5-26.2 1.5-19.7 0-24.4-0.3-26.3-1.5-1.7-1.2-2.1-2.3-2-5.2 0.2-2.6 0.9-4.1 2.4-4.8 1.2-0.6 11.4-0.9 26.5-0.8zm-11 29.3c13.6 0 15.1 0.2 16.9 2 1.1 1.1 2 2.9 2 4 0 1.1-0.9 2.9-2 4-1.8 1.8-3.3 2-16.3 2-11 0-14.7-0.3-16.5-1.5-1.2-0.8-2.3-2.7-2.4-4.2-0.1-1.4 0.7-3.5 1.7-4.5 1.6-1.6 3.6-1.8 16.6-1.8zm306.4 140c1.1 0 4 1 6.5 2.2 3.3 1.7 5.1 3.5 6.7 6.8 1.5 2.9 2.7 8.1 3.5 14.5 0.9 7.8 0.9 12.1-0.1 19.5-0.7 5.2-2 11.3-3 13.5-0.9 2.2-3.3 5.2-5.2 6.6-1.8 1.5-4.8 3-6.4 3.3-1.7 0.4-4.7 0.1-7-0.7-2.2-0.8-5.2-2.9-6.7-4.8-1.5-1.9-3.4-6.1-4.3-9.4-0.9-3.5-1.5-10.3-1.5-16.5 0-5.8 0.4-13 1-16 0.6-3 2-7.5 3.3-9.9 1.6-3.2 3.5-5.1 6.7-6.8 2.4-1.2 5.3-2.3 6.5-2.3zm-281.5 2h8.2c4.8 0 10.6 0.7 13.8 1.6 3 0.9 7.1 2.7 9 4 1.9 1.2 4.7 4 6.2 6.1 1.4 2.1 3.1 5.6 3.7 7.8 0.6 2.2 1.1 7.4 1.1 11.5 0 4.1-0.6 9.7-1.4 12.5-0.9 2.7-3 6.8-4.9 9-1.9 2.3-5.7 5-8.8 6.4-4.4 2-7.3 2.5-26.9 3.1zm-79.3 4.3c0.1 0.1 3 9.3 12.8 40.6l-26.5 0.1 3.3-9.8c1.9-5.3 4.9-14.5 6.8-20.4 1.9-5.9 3.5-10.7 3.6-10.5z"/>
		<path id="Path 3" class="s0" d="m199.1 470.8c-1.2 0.9-2.4 3.3-2.8 5.2-0.5 2.9-0.2 4 2 6.2 1.6 1.7 3.8 2.8 5.3 2.8 1.5 0 3.7-1.2 5.5-3 1.6-1.6 2.9-3.7 2.9-4.5 0-0.8-0.5-2.5-1-3.8-0.6-1.2-2.1-2.8-3.5-3.5-1.4-0.6-3.3-1.2-4.4-1.2-1 0-2.8 0.8-4 1.7zm26.5 0.4c-2.2 1.6-2.8 2.8-2.7 5.5 0.1 2.2 1 4.3 2.6 5.9 1.4 1.4 3.6 2.5 5 2.5 1.4 0 3.7-1.1 5-2.5 1.6-1.5 2.5-3.7 2.5-5.5 0-1.9-0.9-3.9-2.5-5.5-1.4-1.4-3.6-2.5-4.8-2.5-1.3 0-3.6 0.9-5.1 2.1zm25.4 0.8c-1.6 1.6-2.9 3.9-2.9 5-0.1 1.2 1.3 3.5 2.9 5.1 1.7 1.6 3.7 3 4.5 3 0.8 0 2.9-0.7 4.5-1.5q3-1.5 3.4-4.3c0.3-1.6 0.1-4.1-0.5-5.5-0.5-1.5-1.8-3.2-2.9-3.7-1.1-0.6-2.9-1-4.1-1-1.1 0-3.3 1.3-4.9 2.9z"/>
	</g>
</svg>